<svg version="1.1" id="Layer_1" xmlns="http://www.w3.org/2000/svg" xmlns:xlink="http://www.w3.org/1999/xlink" x="0px" y="0px"
	 width="120" height="56" viewBox="0 0 616 509" enable-background="new 0 0 616 509" xml:space="preserve">
<path fill="#FFFFFF" opacity="1.000000" stroke="none"
	d="
M240.000000,510.000000
	C160.357773,510.000000 80.715546,510.000000 1.036661,510.000000
	C1.036661,340.409821 1.036661,170.819656 1.036661,1.114738
	C206.333282,1.114738 411.666626,1.114738 617.000000,1.114738
	C617.000000,19.742359 617.000000,38.403324 616.652466,57.314415
	C613.813232,42.835415 611.558594,28.060537 608.727905,13.396863
	C607.355225,6.286039 605.314819,5.121486 597.919617,5.013101
	C565.743347,4.541517 533.661743,5.623510 501.859375,11.084558
	C493.009735,12.604202 486.836304,16.831516 483.794464,25.970449
	C478.769226,41.068211 475.915314,56.438957 474.606598,72.268654
	C471.766724,106.619095 478.135529,139.868103 486.020630,172.950806
	C486.412994,174.596939 488.978638,176.747665 490.693207,176.904465
	C522.483276,179.811600 554.241394,179.225128 585.874146,174.898117
	C604.040649,172.413147 608.633545,167.657486 612.119751,149.679626
	C613.591614,142.089706 615.364136,134.558105 617.000000,127.000000
	C617.000000,254.551620 617.000000,382.103241 617.000000,510.000000
	C583.645996,510.000000 550.290833,510.000000 516.675903,509.723022
	C528.216370,504.942688 533.069153,494.780823 536.993408,483.961578
	C548.544128,452.116089 551.525024,418.731049 552.707581,385.363586
	C553.803101,354.452209 552.962402,323.426300 551.757141,292.498199
	C551.131836,276.452820 547.942383,260.500458 545.752441,244.527863
	C545.218445,240.633347 543.131775,238.259171 538.572876,238.850204
	C519.640259,241.304703 500.531189,242.645935 482.747711,250.757874
	C473.027618,255.191711 470.797668,258.973022 473.438995,269.446045
	C477.173492,284.253601 481.159821,299.007507 484.449493,313.914368
	C487.335876,326.993927 488.311584,340.279175 484.961243,353.502197
	C483.507965,359.237946 480.720428,361.510651 474.765320,361.982483
	C469.958649,362.363281 465.133423,362.722900 460.316193,362.725494
	C378.007568,362.770081 295.698944,362.757538 213.390289,362.757538
	C211.310028,362.757538 209.229767,362.757507 206.775314,362.757507
	C206.775314,365.385803 206.726074,367.197021 206.783249,369.004883
	C207.172821,381.323608 207.276688,393.661194 208.055176,405.955811
	C209.569977,429.878632 212.220016,453.683533 218.997208,476.782318
	C222.806793,489.766602 227.360153,502.498383 240.000000,510.000000
M430.255371,16.003563
	C397.748322,15.389232 365.342590,16.326311 333.200043,21.877577
	C324.652496,23.353806 318.532043,27.390491 315.319458,35.752384
	C308.538086,53.403320 306.168854,71.781685 305.916290,90.515434
	C305.522461,119.726562 307.150757,148.760437 315.181976,177.049332
	C318.580688,189.020859 318.347961,187.980240 329.304504,188.100342
	C330.470093,188.113113 331.635406,188.186356 332.799957,188.248337
	C363.278564,189.870407 393.679016,190.073074 423.842072,184.200012
	C432.476410,182.518799 439.240448,178.333908 440.979889,169.657776
	C444.203247,153.580383 447.714264,137.375732 448.717163,121.077110
	C450.727692,88.402481 448.251007,55.919598 440.201843,23.977228
	C438.846863,18.599905 437.011475,15.498899 430.255371,16.003563
M419.307495,339.326874
	C426.094574,342.333466 432.693390,344.903656 440.520264,342.183655
	C456.477753,336.638092 464.330200,320.145752 458.433380,303.368713
	C453.074158,288.121307 437.775024,281.434845 421.934143,287.414459
	C419.692139,288.260742 417.445526,289.094696 414.313812,290.266205
	C414.313812,276.101196 414.313812,262.876160 414.313812,249.631317
	C407.884644,249.631317 402.130249,249.631317 396.221680,249.631317
	C396.221680,280.347870 396.221680,310.731415 396.221680,341.407776
	C402.085785,341.407776 407.689240,341.407776 413.360687,341.407776
	C414.023438,340.011200 414.699585,338.586426 415.488434,336.924164
	C416.726471,337.718384 417.693176,338.338562 419.307495,339.326874
M116.490021,286.652679
	C115.279053,287.802094 114.068092,288.951477 112.872734,290.086060
	C97.512901,281.874207 84.209274,283.596527 75.068855,294.946198
	C66.738533,305.289948 66.745651,323.280396 75.084084,333.555450
	C84.252716,344.853516 97.320717,346.076813 113.749443,337.055664
	C114.372925,338.552368 114.987228,340.027100 115.554092,341.387909
	C121.363899,341.387909 126.965286,341.387909 132.766418,341.387909
	C132.766418,323.006012 132.766418,304.939301 132.766418,286.435486
	C127.411537,286.435486 122.311707,286.435486 116.490021,286.652679
M236.159027,289.503540
	C236.153610,285.175568 236.266830,280.843292 236.109726,276.520813
	C235.949753,272.119812 237.724640,270.038300 242.281601,270.212860
	C247.051224,270.395569 251.833282,270.253693 256.852539,270.253693
	C256.852539,264.269562 256.852539,258.878754 256.852539,253.249832
	C236.360580,253.249832 216.144440,253.249832 195.657379,253.249832
	C195.657379,258.906769 195.657379,264.307159 195.657379,270.309937
	C202.534866,270.309937 209.106903,270.309937 216.203293,270.309937
	C216.203293,294.293762 216.203293,317.681030 216.203293,341.295349
	C223.106354,341.295349 229.463928,341.295349 236.161270,341.295349
	C236.161270,324.092987 236.161270,307.297607 236.159027,289.503540
M40.185841,341.695068
	C43.902180,342.308289 44.087055,340.065735 44.077740,337.232666
	C44.010429,316.761963 44.035343,296.290985 44.053055,275.820068
	C44.054565,274.074646 44.216148,272.329346 44.329411,270.062927
	C49.858929,270.062927 54.862549,270.384583 59.785702,269.895782
	C61.611755,269.714447 64.512886,267.825775 64.734978,266.379578
	C65.396622,262.071289 64.972374,257.596222 64.972374,253.380981
	C43.832638,253.380981 23.448467,253.380981 3.231360,253.380981
	C3.231360,259.170868 3.231360,264.572357 3.231360,270.439819
	C10.235324,270.439819 16.830864,270.439819 23.912386,270.439819
	C23.912386,294.309784 23.912386,317.697266 23.912386,341.697052
	C29.355564,341.697052 34.301510,341.697052 40.185841,341.695068
M347.444489,321.513824
	C347.271179,320.096680 347.097870,318.679504 346.850555,316.657043
	C360.115662,316.657043 372.861389,316.657043 385.494446,316.657043
	C388.343506,300.559692 379.484131,288.713165 362.562134,285.307556
	C350.784515,282.937286 337.310669,288.324219 330.925568,298.718506
	C324.788330,308.709320 324.449921,319.271362 330.808624,329.341919
	C340.833710,345.219025 365.496735,348.440918 379.492065,335.883972
	C381.423157,334.151367 382.919617,331.934357 384.598724,329.963409
	C377.025299,322.812317 374.456207,322.396179 366.393951,326.724701
	C360.295410,329.998932 351.794159,327.931213 347.444489,321.513824
M286.839813,327.153198
	C282.890472,325.072876 281.346771,321.772461 281.682251,317.003540
	C288.356598,317.003540 294.821869,317.003540 301.287140,317.003540
	C307.724396,317.003540 314.161682,317.003540 320.519226,317.003540
	C322.607697,299.929077 313.861481,288.276337 297.157654,285.211639
	C281.735840,282.382141 265.581696,292.437134 262.033813,307.074127
	C258.406036,322.040741 266.987518,337.529022 281.425568,341.827118
	C297.748657,346.686340 315.735352,339.660736 318.934174,328.746124
	C315.626984,326.998566 312.367615,325.016144 308.884033,323.576080
	C307.658813,323.069611 305.414795,323.351990 304.438934,324.199158
	C299.375671,328.594574 293.694519,328.955475 286.839813,327.153198
M146.974380,289.826416
	C146.974380,306.880615 146.974380,323.934784 146.974380,340.976288
	C153.523804,340.976288 159.297470,340.976288 165.701294,340.976288
	C165.701294,338.927307 165.686234,337.147125 165.703918,335.367310
	C165.779892,327.719696 165.605804,320.058197 166.016434,312.428314
	C166.479736,303.819275 173.061493,299.459564 181.302383,301.858948
	C183.178680,302.405273 185.050842,302.965820 187.257523,303.618164
	C189.794708,298.458771 192.233139,293.500214 194.699478,288.484863
	C183.804245,281.948730 174.727280,285.096741 166.333832,292.751221
	C165.727310,290.287628 165.258011,288.381470 164.847717,286.714935
	C159.466217,286.714935 154.490356,286.610504 149.527039,286.813110
	C148.653870,286.848755 147.833176,288.169952 146.974380,289.826416
z"/>
<path fill="#40AAA3" opacity="1.000000" stroke="none"
	d="
M240.468658,510.000000
	C227.360153,502.498383 222.806793,489.766602 218.997208,476.782318
	C212.220016,453.683533 209.569977,429.878632 208.055176,405.955811
	C207.276688,393.661194 207.172821,381.323608 206.783249,369.004883
	C206.726074,367.197021 206.775314,365.385803 206.775314,362.757507
	C209.229767,362.757507 211.310028,362.757538 213.390289,362.757538
	C295.698944,362.757538 378.007568,362.770081 460.316193,362.725494
	C465.133423,362.722900 469.958649,362.363281 474.765320,361.982483
	C480.720428,361.510651 483.507965,359.237946 484.961243,353.502197
	C488.311584,340.279175 487.335876,326.993927 484.449493,313.914368
	C481.159821,299.007507 477.173492,284.253601 473.438995,269.446045
	C470.797668,258.973022 473.027618,255.191711 482.747711,250.757874
	C500.531189,242.645935 519.640259,241.304703 538.572876,238.850204
	C543.131775,238.259171 545.218445,240.633347 545.752441,244.527863
	C547.942383,260.500458 551.131836,276.452820 551.757141,292.498199
	C552.962402,323.426300 553.803101,354.452209 552.707581,385.363586
	C551.525024,418.731049 548.544128,452.116089 536.993408,483.961578
	C533.069153,494.780823 528.216370,504.942688 516.208130,509.723022
	C424.312439,510.000000 332.624878,510.000000 240.468658,510.000000
z"/>
<path fill="#40AAA3" opacity="1.000000" stroke="none"
	d="
M617.000000,126.531342
	C615.364136,134.558105 613.591614,142.089706 612.119751,149.679626
	C608.633545,167.657486 604.040649,172.413147 585.874146,174.898117
	C554.241394,179.225128 522.483276,179.811600 490.693207,176.904465
	C488.978638,176.747665 486.412994,174.596939 486.020630,172.950806
	C478.135529,139.868103 471.766724,106.619095 474.606598,72.268654
	C475.915314,56.438957 478.769226,41.068211 483.794464,25.970449
	C486.836304,16.831516 493.009735,12.604202 501.859375,11.084558
	C533.661743,5.623510 565.743347,4.541517 597.919617,5.013101
	C605.314819,5.121486 607.355225,6.286039 608.727905,13.396863
	C611.558594,28.060537 613.813232,42.835415 616.652466,57.782272
	C617.000000,80.687561 617.000000,103.375122 617.000000,126.531342
z"/>
<path fill="#40AAA3" opacity="1.000000" stroke="none"
	d="
M430.719086,16.010710
	C437.011475,15.498899 438.846863,18.599905 440.201843,23.977228
	C448.251007,55.919598 450.727692,88.402481 448.717163,121.077110
	C447.714264,137.375732 444.203247,153.580383 440.979889,169.657776
	C439.240448,178.333908 432.476410,182.518799 423.842072,184.200012
	C393.679016,190.073074 363.278564,189.870407 332.799957,188.248337
	C331.635406,188.186356 330.470093,188.113113 329.304504,188.100342
	C318.347961,187.980240 318.580688,189.020859 315.181976,177.049332
	C307.150757,148.760437 305.522461,119.726562 305.916290,90.515434
	C306.168854,71.781685 308.538086,53.403320 315.319458,35.752384
	C318.532043,27.390491 324.652496,23.353806 333.200043,21.877577
	C365.342590,16.326311 397.748322,15.389232 430.719086,16.010710
z"/>
<path fill="#40AAA3" opacity="1.000000" stroke="none"
	d="
M418.983704,339.142822
	C417.693176,338.338562 416.726471,337.718384 415.488434,336.924164
	C414.699585,338.586426 414.023438,340.011200 413.360687,341.407776
	C407.689240,341.407776 402.085785,341.407776 396.221680,341.407776
	C396.221680,310.731415 396.221680,280.347870 396.221680,249.631317
	C402.130249,249.631317 407.884644,249.631317 414.313812,249.631317
	C414.313812,262.876160 414.313812,276.101196 414.313812,290.266205
	C417.445526,289.094696 419.692139,288.260742 421.934143,287.414459
	C437.775024,281.434845 453.074158,288.121307 458.433380,303.368713
	C464.330200,320.145752 456.477753,336.638092 440.520264,342.183655
	C432.693390,344.903656 426.094574,342.333466 418.983704,339.142822
M439.138855,319.315979
	C441.529510,311.074890 438.566071,304.156769 431.595642,301.706390
	C424.640411,299.261383 417.926697,302.356140 414.938690,309.384705
	C412.395020,315.368042 414.917847,322.631958 420.608459,325.709595
	C427.254425,329.303894 434.776733,327.000000 439.138855,319.315979
z"/>
<path fill="#40AAA3" opacity="1.000000" stroke="none"
	d="
M116.850952,286.544067
	C122.311707,286.435486 127.411537,286.435486 132.766418,286.435486
	C132.766418,304.939301 132.766418,323.006012 132.766418,341.387909
	C126.965286,341.387909 121.363899,341.387909 115.554092,341.387909
	C114.987228,340.027100 114.372925,338.552368 113.749443,337.055664
	C97.320717,346.076813 84.252716,344.853516 75.084084,333.555450
	C66.745651,323.280396 66.738533,305.289948 75.068855,294.946198
	C84.209274,283.596527 97.512901,281.874207 112.872734,290.086060
	C114.068092,288.951477 115.279053,287.802094 116.850952,286.544067
M113.026039,321.259552
	C113.587135,319.889587 114.295792,318.559998 114.683212,317.142548
	C116.187469,311.639069 113.203323,305.097717 108.053879,302.396118
	C102.563477,299.515625 96.237625,300.669128 92.265671,305.275055
	C87.448883,310.860596 87.725067,319.460358 92.870117,324.097107
	C98.333588,329.020813 107.110512,328.055756 113.026039,321.259552
z"/>
<path fill="#40AAA3" opacity="1.000000" stroke="none"
	d="
M236.160156,290.002869
	C236.161270,307.297607 236.161270,324.092987 236.161270,341.295349
	C229.463928,341.295349 223.106354,341.295349 216.203293,341.295349
	C216.203293,317.681030 216.203293,294.293762 216.203293,270.309937
	C209.106903,270.309937 202.534866,270.309937 195.657379,270.309937
	C195.657379,264.307159 195.657379,258.906769 195.657379,253.249832
	C216.144440,253.249832 236.360580,253.249832 256.852539,253.249832
	C256.852539,258.878754 256.852539,264.269562 256.852539,270.253693
	C251.833282,270.253693 247.051224,270.395569 242.281601,270.212860
	C237.724640,270.038300 235.949753,272.119812 236.109726,276.520813
	C236.266830,280.843292 236.153610,285.175568 236.160156,290.002869
z"/>
<path fill="#40AAA3" opacity="1.000000" stroke="none"
	d="
M39.716644,341.696045
	C34.301510,341.697052 29.355564,341.697052 23.912386,341.697052
	C23.912386,317.697266 23.912386,294.309784 23.912386,270.439819
	C16.830864,270.439819 10.235324,270.439819 3.231360,270.439819
	C3.231360,264.572357 3.231360,259.170868 3.231360,253.380981
	C23.448467,253.380981 43.832638,253.380981 64.972374,253.380981
	C64.972374,257.596222 65.396622,262.071289 64.734978,266.379578
	C64.512886,267.825775 61.611755,269.714447 59.785702,269.895782
	C54.862549,270.384583 49.858929,270.062927 44.329411,270.062927
	C44.216148,272.329346 44.054565,274.074646 44.053055,275.820068
	C44.035343,296.290985 44.010429,316.761963 44.077740,337.232666
	C44.087055,340.065735 43.902180,342.308289 39.716644,341.696045
z"/>
<path fill="#40AAA3" opacity="1.000000" stroke="none"
	d="
M347.645386,321.863586
	C351.794159,327.931213 360.295410,329.998932 366.393951,326.724701
	C374.456207,322.396179 377.025299,322.812317 384.598724,329.963409
	C382.919617,331.934357 381.423157,334.151367 379.492065,335.883972
	C365.496735,348.440918 340.833710,345.219025 330.808624,329.341919
	C324.449921,319.271362 324.788330,308.709320 330.925568,298.718506
	C337.310669,288.324219 350.784515,282.937286 362.562134,285.307556
	C379.484131,288.713165 388.343506,300.559692 385.494446,316.657043
	C372.861389,316.657043 360.115662,316.657043 346.850555,316.657043
	C347.097870,318.679504 347.271179,320.096680 347.645386,321.863586
M365.010437,305.984894
	C368.502350,305.709686 367.248260,303.113342 366.182831,302.248138
	C363.639252,300.182526 360.630035,297.472504 357.736572,297.383942
	C354.582245,297.287323 350.817383,299.243622 348.295135,301.431000
	C345.783112,303.609528 346.821198,305.976288 350.615601,305.988037
	C355.113342,306.001953 359.611145,305.992737 365.010437,305.984894
z"/>
<path fill="#40AAA3" opacity="1.000000" stroke="none"
	d="
M287.208710,327.329834
	C293.694519,328.955475 299.375671,328.594574 304.438934,324.199158
	C305.414795,323.351990 307.658813,323.069611 308.884033,323.576080
	C312.367615,325.016144 315.626984,326.998566 318.934174,328.746124
	C315.735352,339.660736 297.748657,346.686340 281.425568,341.827118
	C266.987518,337.529022 258.406036,322.040741 262.033813,307.074127
	C265.581696,292.437134 281.735840,282.382141 297.157654,285.211639
	C313.861481,288.276337 322.607697,299.929077 320.519226,317.003540
	C314.161682,317.003540 307.724396,317.003540 301.287140,317.003540
	C294.821869,317.003540 288.356598,317.003540 281.682251,317.003540
	C281.346771,321.772461 282.890472,325.072876 287.208710,327.329834
M300.911438,301.859558
	C295.585724,295.376038 286.520050,295.324463 283.004211,301.738770
	C281.643097,304.222015 281.861542,305.918823 285.116364,305.968903
	C289.928528,306.042969 294.742859,305.967102 299.556000,305.996582
	C302.560608,306.014954 302.516632,304.652527 300.911438,301.859558
z"/>
<path fill="#40AAA3" opacity="1.000000" stroke="none"
	d="
M146.981308,289.361938
	C147.833176,288.169952 148.653870,286.848755 149.527039,286.813110
	C154.490356,286.610504 159.466217,286.714935 164.847717,286.714935
	C165.258011,288.381470 165.727310,290.287628 166.333832,292.751221
	C174.727280,285.096741 183.804245,281.948730 194.699478,288.484863
	C192.233139,293.500214 189.794708,298.458771 187.257523,303.618164
	C185.050842,302.965820 183.178680,302.405273 181.302383,301.858948
	C173.061493,299.459564 166.479736,303.819275 166.016434,312.428314
	C165.605804,320.058197 165.779892,327.719696 165.703918,335.367310
	C165.686234,337.147125 165.701294,338.927307 165.701294,340.976288
	C159.297470,340.976288 153.523804,340.976288 146.974380,340.976288
	C146.974380,323.934784 146.974380,306.880615 146.981308,289.361938
z"/>
<path fill="#FFFFFF" opacity="1.000000" stroke="none"
	d="
M439.049316,319.702515
	C434.776733,327.000000 427.254425,329.303894 420.608459,325.709595
	C414.917847,322.631958 412.395020,315.368042 414.938690,309.384705
	C417.926697,302.356140 424.640411,299.261383 431.595642,301.706390
	C438.566071,304.156769 441.529510,311.074890 439.049316,319.702515
z"/>
<path fill="#FFFFFF" opacity="1.000000" stroke="none"
	d="
M112.832748,321.591492
	C107.110512,328.055756 98.333588,329.020813 92.870117,324.097107
	C87.725067,319.460358 87.448883,310.860596 92.265671,305.275055
	C96.237625,300.669128 102.563477,299.515625 108.053879,302.396118
	C113.203323,305.097717 116.187469,311.639069 114.683212,317.142548
	C114.295792,318.559998 113.587135,319.889587 112.832748,321.591492
z"/>
<path fill="#FFFFFF" opacity="1.000000" stroke="none"
	d="
M364.559692,305.989227
	C359.611145,305.992737 355.113342,306.001953 350.615601,305.988037
	C346.821198,305.976288 345.783112,303.609528 348.295135,301.431000
	C350.817383,299.243622 354.582245,297.287323 357.736572,297.383942
	C360.630035,297.472504 363.639252,300.182526 366.182831,302.248138
	C367.248260,303.113342 368.502350,305.709686 364.559692,305.989227
z"/>
<path fill="#FFFFFF" opacity="1.000000" stroke="none"
	d="
M301.036804,302.244385
	C302.516632,304.652527 302.560608,306.014954 299.556000,305.996582
	C294.742859,305.967102 289.928528,306.042969 285.116364,305.968903
	C281.861542,305.918823 281.643097,304.222015 283.004211,301.738770
	C286.520050,295.324463 295.585724,295.376038 301.036804,302.244385
z"/>
</svg>